<svg width="339" height="70" viewBox="0 0 339 70" fill="none" xmlns="http://www.w3.org/2000/svg">
<g clip-path="url(#clip0_1_274)">
<path d="M332.252 19.4886C328.076 15.1548 322.167 12.8698 316.257 11.7667C297.11 8.29972 277.727 16.0216 258.343 15.9428C243.214 15.864 228.716 10.5847 213.745 9.71803C198.853 8.85129 184.827 15.864 169.935 15.7064C157.486 15.5488 145.272 10.3484 132.823 11.5303C122.58 12.5546 113.755 16.8883 103.275 14.5245C98.232 13.3426 93.2679 11.6091 88.1463 11.0575C77.115 9.87562 66.5565 14.2881 55.7616 15.47C44.9667 16.6519 33.9355 16.0216 23.4558 13.1062C18.4917 11.6879 12.9761 10.8211 8.32717 13.185C7.53922 13.5789 6.75128 14.1305 6.04212 14.6821C1.62962 18.6218 -0.103869 34.4596 0.684078 40.1328C0.999258 42.339 2.49636 50.8489 6.4361 48.2486C8.01199 47.2243 8.79994 45.2544 9.11512 43.4422C9.66668 40.9207 10.297 34.4596 13.37 34.4596C17.3886 34.5384 20.0676 40.054 24.3225 39.1084C27.9471 38.3205 31.808 36.6658 35.5902 38.0053C40.633 39.8964 41.9725 45.7272 45.5971 49.1154C50.4824 53.6067 56.4708 33.0413 62.9319 39.5812C65.2958 41.9451 64.9018 45.412 64.823 48.485C64.7442 51.1641 65.0594 56.2069 68.6052 56.7585C69.7083 56.9161 70.8902 56.4433 71.5206 55.5766C75.4603 50.4549 69.8659 43.2846 73.9632 38.3205C78.1393 33.1988 86.334 36.6658 91.5344 37.7689C95.553 38.6357 98.626 38.1629 102.645 38.1629C104.536 38.1629 105.245 39.3448 105.166 41.1571C105.008 45.4908 102.881 51.2428 105.481 55.2614C106.19 56.4433 107.451 57.2312 108.869 56.9161C110.288 56.6797 111.233 55.419 111.627 54.1583C112.415 51.0853 111.233 47.5395 111.154 44.3877C111.076 40.9207 110.682 35.7203 115.724 36.4294C118.482 36.8234 121.004 38.1629 123.683 38.9509C128.962 40.5268 134.95 36.4294 140.545 34.6959C143.539 33.7504 146.612 35.8779 146.77 39.0297C146.927 42.339 146.77 46.9091 145.903 53.2127C143.697 68.8141 155.279 68.0261 154.255 60.6982C153.625 56.1281 153.782 47.7759 154.019 42.2602C154.255 42.8118 154.57 43.3634 154.807 43.9149C158.352 50.2185 164.971 47.5395 168.123 42.4966C170.644 38.5569 171.984 33.514 177.5 34.1444C184.197 34.8535 190.422 37.9265 197.119 38.2417C203.344 38.5569 208.781 35.4839 214.848 34.6171C220.521 33.7504 226.51 34.3808 231.947 36.4294C236.99 38.3205 241.875 41.8663 247.548 41.2359C249.045 41.0783 251.251 39.66 252.67 40.8419C254.167 42.1814 253.064 45.5696 252.749 47.1455C252.433 49.1154 252.433 51.2428 252.906 53.2127C253.143 54.237 253.537 55.3402 254.246 56.1281C254.955 56.9161 256.216 57.31 257.161 56.9161C258.343 56.4433 258.816 55.025 259.052 53.6855C259.761 49.0366 259.604 46.0424 259.604 41.3147C259.604 40.2904 259.682 39.1872 260.47 38.4781C261.101 37.9265 262.125 37.8477 262.992 37.9265C267.404 38.0841 270.556 37.7689 274.575 39.5812C276.387 40.448 277.648 42.1814 277.648 44.2301C277.727 47.3031 277.49 51.4004 276.781 56.7585C274.654 71.9659 285.921 71.1779 284.897 64.0864C284.345 60.1467 284.424 53.2915 284.582 48.0123C284.66 45.8848 286.473 44.2301 288.6 44.3877H288.679C293.958 44.7817 299.159 35.8779 304.438 36.981C309.796 38.0841 315.39 45.412 319.803 42.1814C321.379 41.0783 322.403 39.1872 324.137 38.3205C325.713 37.4538 326.737 38.3993 327.21 39.9752C328.786 45.3332 330.046 50.9277 330.283 56.5221C330.283 57.0737 330.44 57.704 330.834 58.1768C332.489 60.1467 335.168 57.5464 336.035 55.1826C339.659 44.6241 339.974 27.6044 332.252 19.4886Z" fill="white"/>
<path d="M71.6774 47.9324C70.9682 48.7991 69.8651 49.2719 68.762 49.1143C65.2162 48.5627 64.901 43.5987 64.9798 40.8408C65.0586 37.7678 65.4526 34.3009 63.0887 31.937C56.6276 25.3183 50.6392 45.9625 45.7539 41.4712C42.0505 38.083 40.711 32.2522 35.7469 30.3611C32.0436 28.9428 28.1826 30.5975 24.4793 31.4643C20.2244 32.4098 17.5454 26.8942 13.5268 26.8154C10.4538 26.7366 9.74467 33.2765 9.2719 35.798C8.87793 37.5315 8.16878 39.5801 6.59288 40.6045C2.73194 43.1259 1.15604 34.8524 0.840862 32.5674C0.604478 35.6404 0.604478 38.3982 0.840862 40.2105C1.15604 42.4167 2.65314 50.9266 6.59288 48.3263C8.16878 47.302 8.95672 45.3321 9.2719 43.5199C9.82347 40.9984 10.4538 34.5373 13.5268 34.5373C17.5454 34.6161 20.2244 40.1317 24.4793 39.1861C28.1039 38.3982 31.9648 36.7435 35.7469 38.083C40.7898 39.9741 42.1293 45.8049 45.7539 49.1931C50.6392 53.6844 56.6276 33.119 63.0887 39.6589C65.4526 42.0228 65.0586 45.4897 64.9798 48.5627C64.901 51.2418 65.2162 56.2846 68.762 56.8362C69.8651 56.9938 71.047 56.521 71.6774 55.6543C73.8836 52.8176 73.0957 49.3507 72.7017 46.0413C72.4653 46.6717 72.1501 47.302 71.6774 47.9324Z" fill="#D9F1FF"/>
<path d="M146.848 31.3854C146.69 28.2336 143.617 26.1062 140.623 27.0517C135.029 28.7852 129.04 32.8825 123.761 31.3066C121.082 30.5187 118.56 29.1792 115.803 28.7852C110.76 27.9972 111.154 33.2765 111.233 36.7435C111.233 37.6102 111.311 38.5557 111.469 39.4225C111.942 37.4526 113.045 36.0343 115.803 36.5071C118.56 36.9011 121.082 38.2406 123.761 39.0285C129.04 40.6044 135.029 36.5071 140.623 34.7736C143.381 33.9069 146.217 35.6403 146.769 38.3194C146.927 35.5615 146.927 33.2765 146.848 31.3854Z" fill="#D9F1FF"/>
<path d="M153.939 55.9716C152.441 59.1234 147.399 58.9658 146.059 52.7411C146.059 52.8986 145.98 53.0562 145.98 53.2138C143.774 68.8152 155.357 68.0272 154.333 60.6993C154.096 59.4386 154.017 57.7839 153.939 55.9716Z" fill="#D9F1FF"/>
<path d="M105.244 33.4351C105.323 31.6228 104.614 30.4409 102.723 30.4409C98.7828 30.4409 95.631 30.9137 91.6125 30.0469C86.412 28.9438 78.1386 25.4768 74.0412 30.5985C71.7562 33.4351 72.4653 36.9021 72.8593 40.3691C73.0957 39.6599 73.4897 38.9507 74.0412 38.3204C78.2173 33.1987 86.412 36.6657 91.6125 37.7688C95.631 38.6356 98.704 38.1628 102.723 38.1628C103.589 38.1628 104.22 38.3992 104.614 38.7932C104.85 36.9809 105.244 35.0898 105.244 33.4351Z" fill="#D9F1FF"/>
<path d="M108.947 49.2724C107.529 49.5087 106.268 48.7208 105.559 47.6177C105.165 47.0661 104.929 46.4357 104.771 45.8054C104.298 49.1148 103.904 52.6605 105.559 55.3396C106.268 56.5215 107.529 57.3094 108.947 56.9942C110.366 56.7579 111.311 55.4971 111.705 54.2364C112.257 52.0302 111.784 49.5087 111.469 47.1449C110.996 48.1692 110.129 49.036 108.947 49.2724Z" fill="#D9F1FF"/>
<path d="M284.502 59.2801C283.005 62.3531 278.199 62.1956 276.859 56.1284C276.859 56.3647 276.78 56.5223 276.78 56.7587C274.653 71.9661 285.92 71.1782 284.896 64.0866C284.66 62.7471 284.581 61.0924 284.502 59.2801Z" fill="#D9F1FF"/>
<path d="M335.876 47.3816C335.009 49.6667 332.33 52.3457 330.675 50.3758C330.282 49.903 330.124 49.3515 330.124 48.7211C329.966 43.1267 328.627 37.5323 327.051 32.1742C326.578 30.5983 325.554 29.7316 323.978 30.5195C322.244 31.4651 321.22 33.2773 319.644 34.3805C315.232 37.5323 309.637 30.2043 304.279 29.18C299 28.0769 293.878 36.9807 288.52 36.5867H288.441C286.314 36.4291 284.502 38.0838 284.423 40.2113C284.344 43.4419 284.265 47.224 284.344 50.6122C284.344 49.6667 284.423 48.7999 284.423 47.9332C284.502 45.8057 286.314 44.151 288.441 44.3086H288.52C293.8 44.7026 299 35.7988 304.279 36.9019C309.637 38.005 315.232 45.3329 319.644 42.1024C321.22 40.9992 322.244 39.1082 323.978 38.2414C325.554 37.3747 326.578 38.3202 327.051 39.8961C328.627 45.2541 329.888 50.8486 330.124 56.443C330.124 56.9946 330.282 57.625 330.675 58.0977C332.33 60.0676 335.009 57.4673 335.876 55.1035C337.846 49.5879 338.87 42.3387 338.319 35.4836C338.003 39.8173 337.137 43.9934 335.876 47.3816Z" fill="#D9F1FF"/>
<path d="M277.647 36.509C277.568 34.4604 276.386 32.6481 274.574 31.8601C270.556 30.0478 267.404 30.363 262.991 30.2054C262.125 30.2054 261.179 30.2054 260.47 30.757C259.682 31.3874 259.603 32.5693 259.603 33.5936C259.603 38.2425 259.761 41.3155 259.052 45.9644C258.894 47.2251 258.421 48.6434 257.16 49.195C256.136 49.5889 254.954 49.195 254.245 48.407C253.615 47.6979 253.221 46.8311 252.984 45.8856C252.906 46.3584 252.748 46.8311 252.748 47.1463C252.433 49.1162 252.433 51.2436 252.906 53.2135C253.142 54.2378 253.536 55.341 254.245 56.1289C254.954 56.9169 256.215 57.3108 257.16 56.9169C258.342 56.4441 258.815 55.0258 259.052 53.6863C259.761 49.0374 259.603 46.0432 259.603 41.3155C259.603 40.2912 259.682 39.188 260.47 38.4789C261.1 37.9273 262.125 37.8485 262.991 37.9273C267.404 38.0849 270.556 37.7697 274.574 39.582C275.992 40.2124 277.017 41.4731 277.49 42.9702C277.647 40.4488 277.647 38.3213 277.647 36.509Z" fill="#D9F1FF"/>
<path d="M252.748 39.424C252.984 37.8481 254.087 34.4599 252.669 33.1204C251.251 31.8597 249.045 33.278 247.547 33.5144C241.953 34.1448 236.989 30.6778 231.946 28.7079C226.588 26.6592 220.6 26.1077 214.848 26.8956C208.78 27.7624 203.344 30.8354 197.119 30.5202C190.421 30.205 184.118 27.132 177.499 26.4229C171.983 25.7925 170.644 30.8354 168.122 34.7751C164.971 39.818 158.352 42.497 154.806 36.1934C154.491 35.6418 154.254 35.0903 154.018 34.5387C153.86 38.1633 153.782 42.891 153.861 47.0671C153.861 45.3336 153.939 43.6789 154.018 42.2606C154.254 42.8122 154.57 43.3637 154.806 43.9153C158.352 50.2189 164.971 47.5399 168.122 42.497C170.644 38.5573 171.983 33.5144 177.499 34.1448C184.196 34.8539 190.421 37.9269 197.119 38.2421C203.344 38.5573 208.78 35.4843 214.848 34.6175C220.521 33.7508 226.509 34.3811 231.946 36.4298C236.989 38.3209 241.874 41.8666 247.547 41.2363C249.045 41.0787 251.251 39.6604 252.59 40.8423C252.59 40.3695 252.669 39.8968 252.748 39.424Z" fill="#D9F1FF"/>
<path d="M111.706 51.481C111.39 52.8205 110.366 54.0025 108.948 54.2388C107.53 54.4752 106.269 53.6873 105.56 52.5842C104.851 51.481 104.535 50.1415 104.378 48.802C104.22 51.1658 104.378 53.4509 105.56 55.2632C106.269 56.4451 107.53 57.233 108.948 56.9179C110.366 56.6815 111.312 55.4208 111.706 54.16C112.021 52.8993 112.021 51.6386 111.942 50.2991C111.863 50.6931 111.784 51.087 111.706 51.481Z" fill="#B4DCFF"/>
<path d="M146.848 40.2131C146.848 38.7948 146.848 37.4553 146.769 36.3521C146.611 33.2003 143.538 31.0729 140.544 32.0184C134.95 33.7519 128.961 37.8492 123.682 36.2733C121.003 35.4854 118.482 34.1459 115.724 33.7519C110.839 32.964 111.075 38.0068 111.154 41.4738C111.311 38.6372 112.021 35.9582 115.724 36.5097C118.482 36.9037 121.003 38.2432 123.682 39.0312C128.961 40.607 134.95 36.5097 140.544 34.7762C143.538 33.8307 146.611 35.9582 146.769 39.1099C146.848 39.4251 146.848 39.8191 146.848 40.2131Z" fill="#B4DCFF"/>
<path d="M105.165 39.897C105.244 39.4243 105.244 38.8727 105.244 38.3999C105.323 36.5876 104.614 35.4057 102.723 35.4057C98.7828 35.4057 95.631 35.8785 91.6125 35.0117C86.4121 33.9086 78.1386 30.4416 74.0413 35.5633C72.4654 37.4544 72.3078 39.7394 72.5442 42.1033C72.7018 40.7638 73.0957 39.503 74.0413 38.3211C78.2174 33.1995 86.4121 36.6664 91.6125 37.7696C95.631 38.6363 98.704 38.1635 102.723 38.1635C104.22 38.1635 104.929 38.7939 105.165 39.897Z" fill="#B4DCFF"/>
<path d="M71.6777 52.8984C70.9685 53.7651 69.8654 54.2379 68.7623 54.0803C65.9256 53.6863 65.1377 50.2981 64.9801 47.6191C64.9801 47.9343 64.9801 48.2495 64.9801 48.5646C64.9013 51.2437 65.2165 56.2865 68.7623 56.8381C69.8654 56.9957 71.0473 56.5229 71.6777 55.6562C73.1748 53.7651 73.2536 51.5588 73.096 49.2738C72.9384 50.5345 72.5444 51.7952 71.6777 52.8984Z" fill="#B4DCFF"/>
<path d="M63.0101 36.9037C56.5489 30.285 50.5605 50.9292 45.6752 46.4379C41.9719 43.0497 40.6324 37.2189 35.6683 35.3278C31.965 33.9095 28.104 35.5642 24.4007 36.431C20.1457 37.3765 17.4667 31.8609 13.4482 31.7821C10.3752 31.7033 9.66604 38.2432 9.19327 40.7647C8.7993 42.4982 8.09014 44.5468 6.51425 45.5712C2.57451 48.1714 1.07741 39.6616 0.762232 37.4553C0.683437 36.9037 0.604642 36.1946 0.604642 35.4854C0.525847 37.3765 0.604642 39.0312 0.762232 40.2131C1.07741 42.4194 2.57451 50.9292 6.51425 48.329C8.09014 47.3046 8.87809 45.3348 9.19327 43.5225C9.74483 41.0011 10.3752 34.5399 13.4482 34.5399C17.4667 34.6187 20.1457 40.1343 24.4007 39.1888C28.0252 38.4008 31.8862 36.7461 35.6683 38.0857C40.7112 39.9767 42.0507 45.8075 45.6752 49.1957C50.5605 53.687 56.5489 33.1216 63.0101 39.6616C64.4284 41.0799 64.8224 42.8921 64.98 44.7832C65.0588 41.9466 65.0588 39.0312 63.0101 36.9037Z" fill="#B4DCFF"/>
<path d="M253.221 41.9462C253.457 40.5279 253.536 38.952 252.59 38.1641C251.172 36.9033 248.966 38.3216 247.469 38.558C241.874 39.1884 236.91 35.7214 231.867 33.7516C226.509 31.7029 220.521 31.1513 214.769 31.9393C208.702 32.806 203.265 35.879 197.04 35.5638C190.342 35.2487 184.039 32.1757 177.42 31.4665C171.905 30.8361 170.565 35.879 168.044 39.8188C164.892 44.8616 158.273 47.5406 154.727 41.2371C154.412 40.6855 154.176 40.1339 153.939 39.5824C153.861 42.5766 153.703 46.2799 153.782 49.9045C153.782 47.2255 153.861 44.5464 153.939 42.3402C154.176 42.8917 154.491 43.4433 154.727 43.9949C158.273 50.2985 164.892 47.6194 168.044 42.5766C170.565 38.6368 171.905 33.594 177.42 34.2243C184.118 34.9335 190.342 38.0065 197.04 38.3217C203.265 38.6368 208.702 35.5638 214.769 34.6971C220.442 33.8303 226.431 34.4607 231.867 36.5094C236.91 38.4004 241.795 41.9462 247.469 41.3159C248.966 41.1583 251.172 39.74 252.59 40.9219C252.906 41.1583 253.142 41.4734 253.221 41.9462Z" fill="#B4DCFF"/>
<path d="M284.818 63.3782C283.794 67.6331 277.175 67.6331 276.544 58.9657C275.756 71.7305 285.842 70.7061 284.897 64.0086C284.818 63.851 284.818 63.6146 284.818 63.3782Z" fill="#B4DCFF"/>
<path d="M335.876 52.3466C335.01 54.6317 332.331 57.3107 330.676 55.3408C330.282 54.868 330.124 54.3165 330.124 53.6861C329.967 48.0917 328.627 42.4973 327.051 37.1392C326.579 35.5633 325.554 34.6966 323.978 35.4845C322.245 36.4301 321.221 38.2423 319.645 39.3455C315.232 42.4973 309.638 35.1694 304.28 34.145C299 33.0419 293.879 41.9457 288.521 41.5517H288.442C286.315 41.3941 284.502 43.0488 284.423 45.1763C284.345 47.6977 284.266 50.5343 284.345 53.2921C284.345 51.4011 284.423 49.5888 284.423 47.9341C284.502 45.8066 286.315 44.152 288.442 44.3095H288.521C293.8 44.7035 299 35.7997 304.28 36.9028C309.638 38.006 315.232 45.3339 319.645 42.1033C321.221 41.0002 322.245 39.1091 323.978 38.2423C325.554 37.3756 326.579 38.3211 327.051 39.897C328.627 45.2551 329.888 50.8495 330.124 56.4439C330.124 56.9955 330.282 57.6259 330.676 58.0986C332.331 60.0685 335.01 57.4683 335.876 55.1044C337.61 50.298 338.634 44.0732 338.477 37.9272C338.319 43.1276 337.374 48.2493 335.876 52.3466Z" fill="#B4DCFF"/>
<path d="M277.647 41.5527C277.568 39.504 276.386 37.6917 274.574 36.9038C270.556 35.0915 267.404 35.4067 262.991 35.2491C262.124 35.2491 261.179 35.2491 260.47 35.8006C259.682 36.431 259.603 37.6129 259.603 38.6373C259.603 39.4252 259.603 40.1344 259.603 40.7647C259.682 39.898 259.839 39.11 260.47 38.5585C261.1 38.0069 262.124 37.9281 262.991 38.0069C267.404 38.1645 270.556 37.8493 274.574 39.6616C276.386 40.4495 277.568 42.2618 277.647 44.2317C277.647 43.2073 277.647 42.3406 277.647 41.5527Z" fill="#B4DCFF"/>
<path d="M259.051 50.9296C258.893 52.1904 258.421 53.6087 257.16 54.1602C256.136 54.5542 254.954 54.1602 254.244 53.3723C253.535 52.5843 253.141 51.56 252.905 50.4569C252.747 49.7477 252.669 49.0386 252.59 48.3294C252.432 49.9841 252.511 51.56 252.905 53.2147C253.141 54.239 253.535 55.3421 254.244 56.1301C254.954 56.918 256.214 57.312 257.16 56.918C258.342 56.4453 258.815 55.027 259.051 53.6875C259.603 49.9841 259.602 47.3051 259.602 43.9957C259.524 46.1232 259.445 48.3294 259.051 50.9296Z" fill="#B4DCFF"/>
<path d="M154.254 60.1466C153.23 64.5591 146.375 64.5591 145.745 55.6553C144.957 68.7353 155.279 67.7109 154.333 60.777C154.254 60.5406 154.254 60.3042 154.254 60.1466Z" fill="#B4DCFF"/>
<path d="M317.124 16.4957C317.045 17.9928 313.342 19.0171 308.85 18.8595C304.359 18.7019 300.734 17.3624 300.734 15.9441C300.813 14.447 304.517 13.4227 309.008 13.5803C313.578 13.7379 317.124 15.0774 317.124 16.4957Z" fill="#D9F1FF"/>
<path d="M221.309 14.683C221.23 16.1801 217.527 17.2045 213.036 17.0469C208.544 16.8893 204.92 15.5498 204.92 14.1315C204.999 12.6344 208.702 11.61 213.193 11.7676C217.763 11.9252 221.388 13.2647 221.309 14.683Z" fill="#D9F1FF"/>
<path d="M91.6913 15.5494C91.6125 16.7313 88.6971 17.5981 85.0725 17.4405C81.4479 17.2829 78.6113 16.2586 78.6113 15.0766C78.6901 13.8947 81.6055 13.028 85.2301 13.1856C88.8546 13.3432 91.6913 14.3675 91.6913 15.5494Z" fill="#D9F1FF"/>
<path d="M77.0366 15.2334C77.1942 16.1002 75.2243 17.2033 72.7029 17.6761C70.1027 18.2276 67.8964 17.9913 67.7388 17.1245C67.5812 16.2578 69.5511 15.1546 72.0725 14.6819C74.594 14.2091 76.8002 14.4455 77.0366 15.2334Z" fill="#D9F1FF"/>
<path d="M16.8364 14.3678C16.994 15.2346 15.0241 16.3377 12.5027 16.8105C9.90247 17.362 7.69621 17.1257 7.53862 16.2589C7.38103 15.3922 9.3509 14.289 11.8723 13.8163C14.4726 13.2647 16.6788 13.5011 16.8364 14.3678Z" fill="#D9F1FF"/>
<path d="M202.713 14.6053C202.871 15.7084 200.349 16.9691 197.04 17.5207C193.731 18.0722 190.894 17.5995 190.736 16.5751C190.579 15.472 193.1 14.2113 196.41 13.6597C199.719 13.1082 202.556 13.5021 202.713 14.6053Z" fill="#D9F1FF"/>
<path fill-rule="evenodd" clip-rule="evenodd" d="M37.2448 29.9692C37.2448 31.0723 36.2993 32.0179 35.1961 32.0179C34.093 32.0179 33.1475 31.0723 33.1475 29.9692C33.1475 28.8661 34.093 27.9205 35.1961 27.9205C36.2993 27.9205 37.2448 28.7873 37.2448 29.9692Z" fill="white"/>
<path fill-rule="evenodd" clip-rule="evenodd" d="M226.509 2.54866C226.509 3.65179 225.564 4.59733 224.461 4.59733C223.358 4.59733 222.412 3.65179 222.412 2.54866C222.412 1.44554 223.358 0.5 224.461 0.5C225.643 0.5 226.509 1.44554 226.509 2.54866Z" fill="white"/>
<path fill-rule="evenodd" clip-rule="evenodd" d="M333.513 39.5029C333.513 40.6061 332.567 41.5516 331.464 41.5516C330.361 41.5516 329.416 40.6061 329.416 39.5029C329.416 38.3998 330.361 37.4543 331.464 37.4543C332.567 37.4543 333.513 38.3998 333.513 39.5029Z" fill="white"/>
<path fill-rule="evenodd" clip-rule="evenodd" d="M274.968 42.5771C274.968 43.6802 274.022 44.6258 272.919 44.6258C271.816 44.6258 270.871 43.6802 270.871 42.5771C270.871 41.474 271.816 40.5284 272.919 40.5284C274.022 40.6072 274.968 41.474 274.968 42.5771Z" fill="white"/>
<path fill-rule="evenodd" clip-rule="evenodd" d="M183.645 35.4054C183.645 36.5085 182.699 37.454 181.596 37.454C180.493 37.454 179.547 36.5085 179.547 35.4054C179.547 34.3022 180.493 33.3567 181.596 33.3567C182.778 33.3567 183.645 34.3022 183.645 35.4054Z" fill="white"/>
<path fill-rule="evenodd" clip-rule="evenodd" d="M228.873 62.1183C228.873 62.6698 228.401 63.1426 227.849 63.1426C227.297 63.1426 226.825 62.6698 226.825 62.1183C226.825 61.5667 227.297 61.0939 227.849 61.0939C228.401 61.0939 228.873 61.5667 228.873 62.1183Z" fill="white"/>
<path fill-rule="evenodd" clip-rule="evenodd" d="M131.483 43.6017C131.483 44.1533 131.01 44.626 130.458 44.626C129.907 44.626 129.434 44.1533 129.434 43.6017C129.434 43.0501 129.907 42.5774 130.458 42.5774C131.089 42.5774 131.483 43.0501 131.483 43.6017Z" fill="white"/>
<path fill-rule="evenodd" clip-rule="evenodd" d="M159.77 14.2093C159.77 14.7608 159.298 15.2336 158.746 15.2336C158.194 15.2336 157.722 14.7608 157.722 14.2093C157.722 13.6577 158.194 13.1849 158.746 13.1849C159.298 13.1849 159.77 13.6577 159.77 14.2093Z" fill="white"/>
<path fill-rule="evenodd" clip-rule="evenodd" d="M113.36 21.0662C113.36 21.6178 112.887 22.0905 112.335 22.0905C111.784 22.0905 111.311 21.6178 111.311 21.0662C111.311 20.5146 111.784 20.0419 112.335 20.0419C112.887 20.0419 113.36 20.5146 113.36 21.0662Z" fill="white"/>
<path fill-rule="evenodd" clip-rule="evenodd" d="M78.6908 15.2346C78.6908 15.7862 78.218 16.2589 77.6664 16.2589C77.1149 16.2589 76.6421 15.7862 76.6421 15.2346C76.6421 14.683 77.1149 14.2103 77.6664 14.2103C78.218 14.2103 78.6908 14.683 78.6908 15.2346Z" fill="white"/>
<path fill-rule="evenodd" clip-rule="evenodd" d="M88.619 44.6253C88.619 45.1769 88.1462 45.6497 87.5946 45.6497C87.0431 45.6497 86.5703 45.1769 86.5703 44.6253C86.5703 44.0738 87.0431 43.601 87.5946 43.601C88.1462 43.601 88.619 44.0738 88.619 44.6253Z" fill="white"/>
<path fill-rule="evenodd" clip-rule="evenodd" d="M239.196 26.896C239.196 27.4476 238.723 27.9203 238.171 27.9203C237.62 27.9203 237.147 27.4476 237.147 26.896C237.147 26.3444 237.62 25.8717 238.171 25.8717C238.723 25.8717 239.196 26.3444 239.196 26.896Z" fill="white"/>
<path fill-rule="evenodd" clip-rule="evenodd" d="M299.079 15.2346C299.079 15.7862 298.606 16.2589 298.055 16.2589C297.503 16.2589 297.03 15.7862 297.03 15.2346C297.03 14.683 297.503 14.2103 298.055 14.2103C298.606 14.2103 299.079 14.683 299.079 15.2346Z" fill="white"/>
</g>
<defs>
<clipPath id="clip0_1_274">
<rect width="338" height="69" fill="white" transform="translate(0.5 0.5)"/>
</clipPath>
</defs>
</svg>
